-
      the fast  and The Hottest Private Tracker on the net

Please Seed back to make the speed Faster!!
 ............ NFO .............
-                    
**[color=red]Release Brought To You By TommieCook[/color] **                         

                                  **[color=blue]Poster[/color] **
[IMG]http://bitpic.bitboxes.co.uk/images/945imgres.jpg[/IMG]
******************************************************************************************************              

                     **[color=blue][/color] **
[img]http://bitpic.bitboxes.co.uk/images/822yqdWD3g.gif[/img]
******************************************************************************************************

Encoder ..........: Tommie Cook                                                   
Video Codec.......:AVI.X.264
Video Bitrate.....: 2500Kbps                            
Audio Codec.......: AC3
Audio Bitrate.....: 448Kbps/6 channels                      
Resolution........: 1280x544
Runtime...........: 2h 10min                         
Release Date......: N/A
Theatre Date......:  21 December 2013 (USA)
Language..........: English
Subtitles.........:  n/a
IMDB Rating.......:  7.1/10
IMDb URL..........:http://www.imdb.com/title/tt0790724/
_______________________________________________________________________________

[color=blue]General[/color]
Complete name                            : C:Jack.Reacher.2013.R6.720p.[Clean Audio]X.264.Tommiecook.avi
Format                                   : AVI
Format/Info                              : Audio Video Interleave
Format profile                           : OpenDML
File size                                : 2.48 GiB
Duration                                 : 2h 10mn
Overall bit rate                         : 2 720 Kbps
Writing library                          : VirtualDub build 32842/release


________________________________________________________________________________

[color=blue]Video[/color]

Video
ID                                       : 0
Format                                   : AVC
Format/Info                              : Advanced Video Codec
Format profile                           : High@L3.1
Format settings, CABAC                   : Yes
Format settings, ReFrames                : 4 frames
Codec ID                                 : X264
Codec ID/Info                            : XiWave GNU GPL x264 MPEG-4
Duration                                 : 2h 10mn
Bit rate                                 : 2 250 Kbps
Width                                    : 1 280 pixels
Height                                   : 544 pixels
Display aspect ratio                     : 2.35:1
Frame rate                               : 29.970 fps
Color space                              : YUV
Chroma subsampling                       : 4:2:0
Bit depth                                : 8 bits
Scan type                                : Progressive
Bits/(Pixel*Frame)                       : 0.108
Stream size                              : 2.06 GiB (83%)
Writing library                          : x264 core 125 r2200bm 999b753
Encoding settings                        : cabac=1 / ref=3 / deblock=1:-2:-2 / analyse=0x3:0x113 / me=hex / subme=7 / psy=1 / psy_rd=1.00:0.25 / mixed_ref=1 / me_range=16 / chroma_me=1 / trellis=1 / 8x8dct=1 / cqm=0 / deadzone=6,6 / fast_pskip=1 / chroma_qp_offset=-4 / threads=9 / lookahead_threads=1 / sliced_threads=0 / nr=0 / decimate=0 / interlaced=0 / bluray_compat=0 / constrained_intra=0 / bframes=3 / b_pyramid=2 / b_adapt=1 / b_bias=0 / direct=1 / weightb=1 / open_gop=0 / weightp=2 / keyint=250 / keyint_min=25 / scenecut=40 / intra_refresh=0 / rc_lookahead=40 / rc=abr / mbtree=1 / bitrate=2250 / ratetol=1.0 / qcomp=0.80 / qpmin=0 / qpmax=69 / qpstep=4 / ip_ratio=1.10 / aq=1:0.50






_________________________________________________________________________________

[color=blue]Audio[/color]

Audio
ID                                       : 1
Format                                   : AC-3
Format/Info                              : Audio Coding 3
Mode extension                           : CM (complete main)
Format settings, Endianness              : Big
Codec ID                                 : 2000
Duration                                 : 2h 10mn
Bit rate mode                            : Constant
Bit rate                                 : 448 Kbps
Channel(s)                               : 6 channels
Channel positions                        : Front: L C R, Side: L R, LFE
Sampling rate                            : 44.1 KHz
Bit depth                                : 16 bits
Compression mode                         : Lossy
Stream size                              : 418 MiB (16%)
Alignment                                : Split accross interleaves
Interleave, duration                     : 35 ms (1.04 video frame)
Interleave, preload duration             : 522 ms





_________________________________________________________________________________


[color=blue]SOURCES:[/color]

[color=blue]VIDEO:[/color]Thanks Bro :)
[color=blue]AUDIO:[/color]Thanks Bro:)

_________________________________________________________________________________

[color=blue]Plot:[/color]
A homicide investigator digs deeper into a case involving a trained military sniper who shot five random victims.
 __________________________________________________________________________
 

[color=blue]Screens:[/color]
[IMG]http://bitpic.bitboxes.co.uk/images/822JR.720_1.png[/IMG]
[IMG]http://bitpic.bitboxes.co.uk/images/641JR.720_2.png[/IMG]
[IMG]http://bitpic.bitboxes.co.uk/images/795JR.720_3.png[/IMG]
[IMG]http://bitpic.bitboxes.co.uk/images/516JR.720_4.png[/IMG]
[IMG]http://bitpic.bitboxes.co.uk/images/487JR.720_5.png[/IMG]
[img]http://bitpic.bitboxes.co.uk/images/137JR.720_6.png[/img]

_________________________________________________________________________________


[color=blue]Youtube Trailer:[/color]


_________________________________________________________________________________


[color=blue]Sample Included [/color]
yes 1 samples
_________________________________________________________________________________


[color=blue]Notes:[/color]

HD source was shitty, cant believe how all these RG encode the source an didnt fix it. 
No need to say what I done, u can til by the picture.:)
Audio is clean an clear, also fixed it too.


[color=blue]Notes:[/color]
So Enjoy another quality release from TommieCook!

__________________________________________________________________________________

[color=blue]Greetz:[/color]

Boobyblue,26k,LiFT,ADTRG,INSPiRAL,,Dirty Mary,CookieBoy.


__________________________________________________________________________________

[img]http://i.imgbox.com/abg3WiJD.gif[/img]